<mxfile host="Electron" modified="2024-05-13T12:13:15.820Z" agent="Mozilla/5.0 (Windows NT 10.0; Win64; x64) AppleWebKit/537.36 (KHTML, like Gecko) draw.io/24.2.5 Chrome/120.0.6099.109 Electron/28.1.0 Safari/537.36" etag="GP5UE1ozHyU7YmUm0cw1" version="24.2.5" type="device">
  <diagram name="第 1 页" id="tr266JfwDst_PnRiNIE3">
    <mxGraphModel dx="1102" dy="810" grid="1" gridSize="10" guides="1" tooltips="1" connect="1" arrows="1" fold="1" page="1" pageScale="1" pageWidth="3300" pageHeight="4681" math="0" shadow="0">
      <root>
        <mxCell id="0" />
        <mxCell id="1" parent="0" />
        <mxCell id="sRfE5GBA3tL96DVJPCX4-1" value="" style="rounded=0;whiteSpace=wrap;html=1;" vertex="1" parent="1">
          <mxGeometry x="220" y="130" width="400" height="80" as="geometry" />
        </mxCell>
        <mxCell id="sRfE5GBA3tL96DVJPCX4-2" value="" style="rounded=0;whiteSpace=wrap;html=1;" vertex="1" parent="1">
          <mxGeometry x="220" y="130" width="40" height="80" as="geometry" />
        </mxCell>
        <mxCell id="sRfE5GBA3tL96DVJPCX4-3" value="" style="rounded=0;whiteSpace=wrap;html=1;" vertex="1" parent="1">
          <mxGeometry x="300" y="130" width="40" height="80" as="geometry" />
        </mxCell>
        <mxCell id="sRfE5GBA3tL96DVJPCX4-4" value="" style="rounded=0;whiteSpace=wrap;html=1;" vertex="1" parent="1">
          <mxGeometry x="380" y="130" width="40" height="80" as="geometry" />
        </mxCell>
        <mxCell id="sRfE5GBA3tL96DVJPCX4-5" value="" style="rounded=0;whiteSpace=wrap;html=1;" vertex="1" parent="1">
          <mxGeometry x="460" y="130" width="40" height="80" as="geometry" />
        </mxCell>
        <mxCell id="sRfE5GBA3tL96DVJPCX4-6" value="" style="rounded=0;whiteSpace=wrap;html=1;" vertex="1" parent="1">
          <mxGeometry x="540" y="130" width="40" height="80" as="geometry" />
        </mxCell>
        <mxCell id="sRfE5GBA3tL96DVJPCX4-9" value="" style="rounded=0;whiteSpace=wrap;html=1;" vertex="1" parent="1">
          <mxGeometry x="220" y="240" width="400" height="80" as="geometry" />
        </mxCell>
        <mxCell id="sRfE5GBA3tL96DVJPCX4-10" value="" style="rounded=0;whiteSpace=wrap;html=1;" vertex="1" parent="1">
          <mxGeometry x="220" y="240" width="40" height="80" as="geometry" />
        </mxCell>
        <mxCell id="sRfE5GBA3tL96DVJPCX4-11" value="" style="rounded=0;whiteSpace=wrap;html=1;" vertex="1" parent="1">
          <mxGeometry x="300" y="240" width="40" height="80" as="geometry" />
        </mxCell>
        <mxCell id="sRfE5GBA3tL96DVJPCX4-12" value="" style="rounded=0;whiteSpace=wrap;html=1;" vertex="1" parent="1">
          <mxGeometry x="380" y="240" width="40" height="80" as="geometry" />
        </mxCell>
        <mxCell id="sRfE5GBA3tL96DVJPCX4-13" value="" style="rounded=0;whiteSpace=wrap;html=1;" vertex="1" parent="1">
          <mxGeometry x="460" y="240" width="40" height="80" as="geometry" />
        </mxCell>
        <mxCell id="sRfE5GBA3tL96DVJPCX4-14" value="" style="rounded=0;whiteSpace=wrap;html=1;" vertex="1" parent="1">
          <mxGeometry x="540" y="240" width="40" height="80" as="geometry" />
        </mxCell>
        <mxCell id="sRfE5GBA3tL96DVJPCX4-15" value="&lt;font style=&quot;font-size: 24px;&quot;&gt;q1&lt;/font&gt;" style="text;html=1;align=center;verticalAlign=middle;resizable=0;points=[];autosize=1;strokeColor=none;fillColor=none;" vertex="1" parent="1">
          <mxGeometry x="115" y="140" width="50" height="40" as="geometry" />
        </mxCell>
        <mxCell id="sRfE5GBA3tL96DVJPCX4-16" value="&lt;font style=&quot;font-size: 24px;&quot;&gt;q2&lt;/font&gt;" style="text;html=1;align=center;verticalAlign=middle;resizable=0;points=[];autosize=1;strokeColor=none;fillColor=none;" vertex="1" parent="1">
          <mxGeometry x="115" y="260" width="50" height="40" as="geometry" />
        </mxCell>
        <mxCell id="sRfE5GBA3tL96DVJPCX4-17" value="&lt;font style=&quot;font-size: 24px;&quot;&gt;1&lt;/font&gt;" style="text;html=1;align=center;verticalAlign=middle;resizable=0;points=[];autosize=1;strokeColor=none;fillColor=none;" vertex="1" parent="1">
          <mxGeometry x="580" y="150" width="40" height="40" as="geometry" />
        </mxCell>
        <mxCell id="sRfE5GBA3tL96DVJPCX4-18" value="&lt;font style=&quot;font-size: 18px;&quot;&gt;右：队头&lt;/font&gt;" style="text;html=1;align=center;verticalAlign=middle;resizable=0;points=[];autosize=1;strokeColor=none;fillColor=none;" vertex="1" parent="1">
          <mxGeometry x="600" y="90" width="100" height="40" as="geometry" />
        </mxCell>
        <mxCell id="sRfE5GBA3tL96DVJPCX4-19" value="&lt;font style=&quot;font-size: 18px;&quot;&gt;左：队尾&lt;/font&gt;" style="text;html=1;align=center;verticalAlign=middle;resizable=0;points=[];autosize=1;strokeColor=none;fillColor=none;" vertex="1" parent="1">
          <mxGeometry x="140" y="90" width="100" height="40" as="geometry" />
        </mxCell>
        <mxCell id="sRfE5GBA3tL96DVJPCX4-20" value="&lt;font style=&quot;font-size: 24px;&quot;&gt;2&lt;/font&gt;" style="text;html=1;align=center;verticalAlign=middle;resizable=0;points=[];autosize=1;strokeColor=none;fillColor=none;" vertex="1" parent="1">
          <mxGeometry x="540" y="150" width="40" height="40" as="geometry" />
        </mxCell>
        <mxCell id="sRfE5GBA3tL96DVJPCX4-21" value="&lt;font style=&quot;font-size: 24px;&quot;&gt;3&lt;/font&gt;" style="text;html=1;align=center;verticalAlign=middle;resizable=0;points=[];autosize=1;strokeColor=none;fillColor=none;" vertex="1" parent="1">
          <mxGeometry x="500" y="150" width="40" height="40" as="geometry" />
        </mxCell>
        <mxCell id="sRfE5GBA3tL96DVJPCX4-22" value="&lt;font style=&quot;font-size: 24px;&quot;&gt;4&lt;/font&gt;" style="text;html=1;align=center;verticalAlign=middle;resizable=0;points=[];autosize=1;strokeColor=none;fillColor=none;" vertex="1" parent="1">
          <mxGeometry x="460" y="150" width="40" height="40" as="geometry" />
        </mxCell>
      </root>
    </mxGraphModel>
  </diagram>
</mxfile>
